<svg id="visual" viewBox="0 0 1920 1080" width="1920" height="1080" xmlns="http://www.w3.org/2000/svg" xmlns:xlink="http://www.w3.org/1999/xlink" version="1.1"><path d="M0 482L45.7 473.5C91.3 465 182.7 448 274.2 480.8C365.7 513.7 457.3 596.3 548.8 621.5C640.3 646.7 731.7 614.3 823 570.5C914.3 526.7 1005.7 471.3 1097 446.2C1188.3 421 1279.7 426 1371.2 455C1462.7 484 1554.3 537 1645.8 551.5C1737.3 566 1828.7 542 1874.3 530L1920 518L1920 1081L1874.3 1081C1828.7 1081 1737.3 1081 1645.8 1081C1554.3 1081 1462.7 1081 1371.2 1081C1279.7 1081 1188.3 1081 1097 1081C1005.7 1081 914.3 1081 823 1081C731.7 1081 640.3 1081 548.8 1081C457.3 1081 365.7 1081 274.2 1081C182.7 1081 91.3 1081 45.7 1081L0 1081Z" fill="#f5ccea"></path><path d="M0 617L45.7 637.3C91.3 657.7 182.7 698.3 274.2 714.7C365.7 731 457.3 723 548.8 716.8C640.3 710.7 731.7 706.3 823 676.8C914.3 647.3 1005.7 592.7 1097 577.5C1188.3 562.3 1279.7 586.7 1371.2 596.3C1462.7 606 1554.3 601 1645.8 588C1737.3 575 1828.7 554 1874.3 543.5L1920 533L1920 1081L1874.3 1081C1828.7 1081 1737.3 1081 1645.8 1081C1554.3 1081 1462.7 1081 1371.2 1081C1279.7 1081 1188.3 1081 1097 1081C1005.7 1081 914.3 1081 823 1081C731.7 1081 640.3 1081 548.8 1081C457.3 1081 365.7 1081 274.2 1081C182.7 1081 91.3 1081 45.7 1081L0 1081Z" fill="#e9bee4"></path><path d="M0 743L45.7 735.7C91.3 728.3 182.7 713.7 274.2 724C365.7 734.3 457.3 769.7 548.8 779.2C640.3 788.7 731.7 772.3 823 759.3C914.3 746.3 1005.7 736.7 1097 758.2C1188.3 779.7 1279.7 832.3 1371.2 820.2C1462.7 808 1554.3 731 1645.8 718.5C1737.3 706 1828.7 758 1874.3 784L1920 810L1920 1081L1874.3 1081C1828.7 1081 1737.3 1081 1645.8 1081C1554.3 1081 1462.7 1081 1371.2 1081C1279.7 1081 1188.3 1081 1097 1081C1005.7 1081 914.3 1081 823 1081C731.7 1081 640.3 1081 548.8 1081C457.3 1081 365.7 1081 274.2 1081C182.7 1081 91.3 1081 45.7 1081L0 1081Z" fill="#dbb1de"></path><path d="M0 830L45.7 830.7C91.3 831.3 182.7 832.7 274.2 845.5C365.7 858.3 457.3 882.7 548.8 895.3C640.3 908 731.7 909 823 895.3C914.3 881.7 1005.7 853.3 1097 829.2C1188.3 805 1279.7 785 1371.2 793.7C1462.7 802.3 1554.3 839.7 1645.8 843.2C1737.3 846.7 1828.7 816.3 1874.3 801.2L1920 786L1920 1081L1874.3 1081C1828.7 1081 1737.3 1081 1645.8 1081C1554.3 1081 1462.7 1081 1371.2 1081C1279.7 1081 1188.3 1081 1097 1081C1005.7 1081 914.3 1081 823 1081C731.7 1081 640.3 1081 548.8 1081C457.3 1081 365.7 1081 274.2 1081C182.7 1081 91.3 1081 45.7 1081L0 1081Z" fill="#cca4d9"></path><path d="M0 949L45.7 954.2C91.3 959.3 182.7 969.7 274.2 973.2C365.7 976.7 457.3 973.3 548.8 971.3C640.3 969.3 731.7 968.7 823 955.8C914.3 943 1005.7 918 1097 924.2C1188.3 930.3 1279.7 967.7 1371.2 983.3C1462.7 999 1554.3 993 1645.8 969.8C1737.3 946.7 1828.7 906.3 1874.3 886.2L1920 866L1920 1081L1874.3 1081C1828.7 1081 1737.3 1081 1645.8 1081C1554.3 1081 1462.7 1081 1371.2 1081C1279.7 1081 1188.3 1081 1097 1081C1005.7 1081 914.3 1081 823 1081C731.7 1081 640.3 1081 548.8 1081C457.3 1081 365.7 1081 274.2 1081C182.7 1081 91.3 1081 45.7 1081L0 1081Z" fill="#bc98d5"></path></svg>