<?xml version="1.0" standalone="no"?>
<!DOCTYPE svg PUBLIC "-//W3C//DTD SVG 20010904//EN"
 "http://www.w3.org/TR/2001/REC-SVG-20010904/DTD/svg10.dtd">
<svg version="1.0" xmlns="http://www.w3.org/2000/svg"
 width="1280.000000pt" height="969.000000pt" viewBox="0 0 1280.000000 969.000000"
 preserveAspectRatio="xMidYMid meet">
<metadata>
Created by potrace 1.15, written by Peter Selinger 2001-2017
</metadata>
<g transform="translate(0.000000,969.000000) scale(0.100000,-0.100000)"
fill="#000000" stroke="none">
<path d="M6491 9669 c-37 -13 -66 -17 -93 -13 -35 6 -40 4 -45 -16 -6 -21 -9
-22 -74 -17 -38 3 -71 2 -74 -3 -3 -5 -42 -23 -88 -40 -45 -17 -95 -36 -111
-42 -16 -7 -49 -29 -73 -50 -29 -25 -58 -40 -86 -45 -39 -6 -87 -40 -87 -63 0
-6 9 -14 20 -18 18 -7 16 -12 -29 -56 -28 -27 -72 -61 -98 -75 l-48 -26 -53
-155 -52 -155 2 -221 3 -221 28 -41 c23 -32 27 -47 22 -71 -5 -25 -13 -31 -43
-37 -46 -8 -82 -26 -106 -53 -11 -12 -28 -21 -38 -21 -10 0 -37 -17 -61 -39
-35 -32 -51 -39 -98 -44 -64 -6 -250 -85 -374 -158 -166 -98 -338 -262 -366
-348 -17 -51 -85 -185 -101 -198 -7 -5 -56 -20 -108 -33 -89 -22 -123 -24
-555 -31 -334 -5 -491 -11 -575 -23 -425 -60 -905 -156 -1652 -330 -279 -66
-308 -75 -412 -129 -171 -91 -219 -180 -281 -527 -15 -80 -37 -188 -50 -240
-13 -52 -28 -149 -35 -215 -12 -130 -53 -347 -124 -660 -66 -288 -85 -453 -96
-830 -13 -403 -24 -568 -50 -720 -15 -82 -24 -197 -30 -365 -6 -174 -13 -261
-24 -300 -10 -35 -16 -88 -15 -145 1 -49 -2 -126 -6 -170 -5 -67 -3 -89 14
-139 19 -55 20 -61 5 -90 -10 -21 -17 -68 -19 -149 l-4 -117 39 -25 c40 -25
40 -26 25 -55 -9 -17 -22 -78 -30 -137 -18 -124 -27 -155 -68 -238 -29 -55
-31 -70 -40 -225 -9 -140 -7 -190 9 -335 24 -224 25 -412 1 -482 -23 -66 -71
-110 -162 -148 -82 -34 -99 -46 -115 -85 -10 -25 -9 -36 9 -73 33 -68 56 -82
191 -122 160 -47 258 -50 465 -11 150 29 175 40 205 88 33 55 35 127 9 333
-26 205 -32 426 -12 460 6 11 28 26 50 34 88 31 268 156 346 239 63 68 130
205 123 250 -9 61 -55 143 -115 205 -32 34 -86 104 -120 156 -63 96 -73 131
-49 174 18 33 37 125 37 188 1 31 15 104 32 165 29 99 32 123 34 264 1 130 5
164 23 213 11 31 24 83 27 115 13 112 58 368 77 442 11 41 24 100 28 130 8 55
58 283 86 395 9 33 38 104 65 157 83 164 127 305 164 518 16 94 50 430 61 605
3 50 14 116 25 147 10 31 22 75 25 97 5 32 11 41 27 41 11 0 43 13 71 29 67
39 191 69 324 81 449 38 475 37 817 -11 278 -40 675 -49 1077 -25 147 9 303
16 346 16 l78 0 94 -162 c56 -96 124 -233 166 -333 88 -212 135 -305 212 -421
32 -50 193 -356 357 -680 164 -324 315 -612 335 -640 21 -27 52 -79 70 -115
48 -95 95 -172 182 -292 57 -79 78 -117 78 -140 0 -19 -38 -104 -104 -231
-176 -343 -274 -497 -414 -649 -63 -69 -94 -113 -141 -205 -61 -121 -134 -224
-295 -416 -81 -97 -105 -119 -216 -192 -69 -46 -150 -103 -181 -127 -31 -24
-90 -62 -131 -85 -76 -41 -238 -158 -238 -172 0 -4 -30 -55 -67 -113 -38 -59
-87 -137 -110 -174 -57 -93 -192 -254 -253 -302 -69 -55 -159 -96 -255 -116
-94 -20 -110 -31 -96 -67 14 -36 57 -48 174 -48 l99 0 32 -35 32 -35 105 0
c124 0 148 6 159 35 5 12 28 32 51 44 59 31 154 106 183 144 13 18 34 57 46
87 29 74 36 80 86 80 46 0 84 -25 84 -55 0 -9 7 -30 16 -46 8 -17 19 -52 23
-77 5 -26 16 -64 25 -84 15 -36 15 -39 -2 -55 -11 -10 -33 -26 -50 -35 -39
-21 -42 -51 -7 -74 24 -16 35 -15 183 10 87 14 179 26 205 26 92 0 122 70 73
168 -13 26 -27 63 -31 82 -4 19 -23 71 -42 115 -44 101 -52 168 -24 212 11 17
64 60 118 96 147 97 212 176 248 302 32 110 33 112 144 193 141 104 291 243
490 453 264 279 628 649 638 649 5 0 56 -51 114 -113 58 -61 138 -137 177
-167 38 -30 85 -77 103 -105 18 -27 61 -85 96 -127 34 -43 69 -91 78 -107 8
-16 42 -51 75 -77 34 -26 140 -133 237 -237 97 -104 209 -215 249 -246 80 -62
81 -63 99 -141 7 -30 19 -82 28 -115 8 -33 18 -82 22 -108 6 -42 14 -56 60
-100 60 -59 81 -113 70 -183 -7 -47 -61 -117 -170 -219 -76 -71 -141 -171
-124 -192 8 -8 35 -13 79 -13 l68 0 19 37 c14 29 35 47 96 81 42 24 99 63 125
88 72 68 76 63 82 -100 6 -171 10 -176 130 -176 89 0 94 5 74 64 -18 50 -18
90 2 157 32 110 77 159 126 140 30 -11 49 -34 84 -100 31 -59 174 -199 229
-225 38 -19 130 -21 224 -5 82 13 116 31 129 69 13 36 22 37 100 5 34 -14 74
-25 90 -25 34 0 122 28 139 44 23 21 -12 53 -115 106 -54 27 -127 74 -163 104
-108 89 -311 316 -352 393 -36 68 -62 97 -150 167 -26 21 -57 56 -68 78 -12
23 -40 62 -63 87 -23 25 -68 82 -99 127 -39 54 -80 97 -122 128 -67 49 -124
111 -241 260 -38 49 -100 114 -138 145 -55 44 -79 73 -115 139 -33 59 -83 123
-170 218 -241 262 -340 397 -516 704 -65 113 -124 214 -131 225 -8 11 -14 27
-14 36 0 32 128 258 189 334 37 47 88 129 127 207 36 72 112 205 168 297 195
315 409 692 554 976 45 88 106 185 162 260 108 144 194 307 249 470 25 74 49
127 62 138 18 15 45 17 203 17 219 0 387 12 691 48 384 45 872 36 1217 -24
188 -32 268 -71 288 -142 19 -66 38 -222 55 -442 35 -462 73 -653 186 -921 98
-234 162 -457 264 -914 81 -364 96 -426 115 -465 10 -19 21 -60 25 -90 3 -30
15 -91 25 -135 10 -44 21 -109 25 -145 10 -84 28 -136 66 -183 26 -33 29 -40
17 -50 -8 -7 -20 -30 -26 -52 -7 -22 -34 -70 -61 -106 -44 -60 -75 -89 -211
-198 -19 -15 -49 -52 -65 -82 -41 -74 -42 -170 -3 -245 66 -126 297 -273 493
-314 63 -13 78 -28 99 -98 25 -88 29 -186 12 -324 -27 -217 -15 -354 40 -425
37 -48 59 -57 169 -64 55 -4 161 -15 235 -24 146 -20 151 -20 255 -7 152 18
167 58 68 172 -22 25 -45 60 -52 78 -8 19 -50 64 -102 109 -125 108 -126 114
-79 389 28 166 30 184 24 372 -7 234 -14 285 -55 372 -25 53 -33 90 -45 195
-8 72 -23 166 -34 209 -27 108 -26 122 15 167 25 28 34 46 30 62 -2 12 -9 57
-15 99 -6 43 -16 92 -21 110 -5 18 -14 137 -20 263 -7 154 -20 293 -39 420
-45 295 -70 621 -70 907 0 222 -55 659 -119 950 -46 209 -77 389 -126 733 -69
490 -89 581 -151 712 -90 189 -234 273 -545 318 -129 18 -320 52 -719 125
-938 174 -1118 198 -1580 210 -219 5 -313 11 -333 21 -18 8 -55 54 -103 125
-91 138 -214 270 -329 352 -48 34 -175 106 -283 161 -197 100 -272 149 -272
178 0 8 8 27 19 41 50 73 68 213 31 247 -11 10 -20 27 -20 37 0 22 35 95 58
120 14 16 13 20 -12 39 -22 17 -26 28 -26 70 0 27 5 68 12 92 14 54 5 97 -22
97 -24 0 -70 85 -70 128 0 35 -9 45 -26 31 -15 -12 -16 -11 -33 57 -7 25 -22
48 -40 62 -21 15 -32 34 -36 59 -4 21 -19 67 -35 103 -16 36 -41 97 -55 135
-39 104 -48 115 -90 108 -25 -4 -41 -1 -53 10 -11 10 -58 22 -123 31 -58 8
-118 20 -134 27 -32 14 -50 15 -260 24 -77 3 -153 10 -169 15 -41 14 -73 11
-135 -11z m894 -4178 c3 -6 -32 -72 -78 -148 -46 -76 -87 -153 -90 -171 -4
-18 -39 -81 -78 -140 -106 -158 -303 -576 -337 -713 -6 -26 -17 -91 -23 -145
-16 -144 -37 -184 -216 -398 -17 -21 -35 -36 -41 -32 -19 11 -152 257 -152
280 0 39 -53 191 -115 326 -70 155 -165 337 -308 590 -146 258 -269 495 -260
503 13 14 42 6 73 -20 23 -19 44 -27 78 -28 26 -1 85 -7 132 -14 47 -7 104
-10 126 -7 63 8 96 -6 187 -79 126 -103 210 -135 270 -104 12 6 60 49 107 94
57 55 98 86 125 95 22 7 67 26 100 43 58 30 64 31 205 32 119 1 156 5 205 22
70 25 82 26 90 14z"/>
</g>
</svg>
