<?xml version="1.0" standalone="no"?>
<!DOCTYPE svg PUBLIC "-//W3C//DTD SVG 20010904//EN"
 "http://www.w3.org/TR/2001/REC-SVG-20010904/DTD/svg10.dtd">
<svg version="1.0" xmlns="http://www.w3.org/2000/svg"
 width="1280.000000pt" height="640.000000pt" viewBox="0 0 1280.000000 640.000000"
 preserveAspectRatio="xMidYMid meet">
<metadata>
Created by potrace 1.15, written by Peter Selinger 2001-2017
</metadata>
<g transform="translate(0.000000,640.000000) scale(0.100000,-0.100000)"
fill="#000000" stroke="none">
<path d="M3120 5971 c-41 -9 -95 -26 -120 -37 -25 -11 -80 -31 -124 -45 -74
-23 -80 -27 -112 -76 -19 -28 -41 -54 -49 -57 -8 -3 -15 -12 -15 -20 0 -16
-126 -42 -158 -32 -11 4 -32 -3 -53 -17 -39 -26 -48 -61 -28 -119 12 -37 12
-38 -43 -100 -29 -35 -67 -84 -84 -110 -16 -27 -32 -48 -35 -48 -4 0 -21 -14
-38 -32 -26 -26 -31 -40 -31 -78 0 -61 17 -82 97 -121 132 -64 204 -190 218
-381 7 -91 26 -233 44 -333 15 -79 13 -223 -5 -305 -35 -165 -47 -204 -90
-295 -18 -38 -40 -101 -49 -140 -23 -100 -35 -145 -50 -185 -15 -37 -21 -114
-31 -360 -5 -124 -3 -171 10 -235 10 -44 21 -84 27 -89 5 -6 9 -16 9 -24 0
-20 93 -161 107 -162 47 -1 164 -132 188 -210 4 -14 15 -41 25 -60 9 -19 23
-48 31 -65 12 -26 110 -154 161 -209 10 -11 18 -23 18 -27 0 -4 6 -14 13 -21
7 -7 23 -29 34 -48 26 -41 180 -193 206 -203 9 -3 17 -12 17 -20 0 -16 32 -42
136 -109 44 -29 89 -59 100 -66 10 -7 26 -15 36 -18 15 -5 34 -54 57 -144 5
-19 14 -55 21 -80 14 -53 28 -136 39 -235 4 -38 11 -78 15 -87 7 -14 3 -18
-15 -18 -38 0 -169 -30 -224 -52 -31 -12 -94 -23 -165 -29 -111 -9 -227 -21
-320 -35 -25 -3 -50 -12 -55 -19 -8 -10 -228 -14 -1070 -20 -583 -3 -1076 -11
-1095 -15 -47 -11 -124 -40 -130 -48 -3 -4 -34 -20 -70 -36 -105 -46 -210
-100 -222 -114 -6 -6 -17 -12 -25 -12 -11 0 -51 -19 -123 -58 -8 -5 -33 -17
-55 -28 -31 -15 -40 -25 -40 -44 l0 -25 1870 -3 c1197 -2 2007 0 2250 7 209 6
1255 16 2325 21 5670 28 6336 33 6344 41 16 15 -7 61 -39 79 -36 20 -139 55
-340 115 -49 14 -99 30 -110 35 -39 16 -180 63 -195 65 -8 1 -36 11 -61 22
-26 12 -62 26 -80 31 -19 6 -65 21 -104 33 -87 27 -289 37 -380 19 -33 -6
-148 -14 -255 -17 l-195 -5 -48 26 c-26 14 -61 26 -76 26 -19 0 -46 14 -77 41
-27 22 -62 47 -79 55 -16 7 -49 30 -73 49 -24 19 -60 39 -80 45 -63 19 -95 44
-149 116 -28 38 -67 82 -85 97 -75 65 -143 111 -183 122 -22 7 -59 22 -80 34
-43 23 -117 28 -173 11 -19 -5 -53 -27 -77 -49 -120 -111 -227 -113 -456 -10
-48 22 -90 39 -94 39 -4 0 -113 42 -243 94 -131 51 -275 106 -322 121 -47 15
-94 31 -105 35 -11 5 -30 12 -42 15 -13 4 -23 11 -23 16 0 5 -20 9 -44 9 -25
0 -48 4 -51 10 -3 5 -15 10 -26 10 -12 0 -55 14 -97 31 -154 61 -358 79 -528
46 -265 -52 -679 -46 -904 12 -39 10 -98 31 -150 54 -71 31 -106 45 -130 52
-14 4 -38 13 -55 20 -16 7 -50 18 -75 25 -25 7 -65 19 -89 26 -25 8 -54 14
-65 14 -11 0 -33 4 -50 9 -17 5 -53 14 -81 20 -27 6 -79 17 -115 25 -36 8 -94
20 -130 26 -112 22 -303 84 -321 106 -6 8 -18 14 -26 14 -8 0 -44 31 -81 69
-92 94 -301 221 -422 257 -84 25 -210 29 -286 8 -50 -13 -70 -15 -89 -6 -15 7
-27 8 -30 2 -4 -6 -42 -10 -87 -10 -64 0 -85 -4 -105 -19 -19 -16 -30 -18 -49
-10 -14 5 -35 9 -47 9 -12 0 -35 11 -51 25 -19 16 -41 25 -63 25 -29 0 -33 3
-33 28 0 34 -9 47 -36 56 -11 3 -27 18 -35 32 -7 14 -26 32 -41 40 -15 8 -28
21 -28 29 0 8 -7 15 -15 15 -9 0 -19 10 -24 23 -5 13 -16 29 -25 36 -9 8 -25
34 -36 58 -11 25 -33 61 -50 79 -27 31 -30 42 -30 100 0 52 -4 69 -21 87 -33
35 -47 80 -46 145 0 38 -5 67 -14 78 -22 26 -38 102 -39 184 -1 82 -19 179
-36 201 -6 8 -16 35 -22 61 -16 63 -69 175 -104 219 -16 20 -37 50 -46 67 -9
17 -38 63 -64 102 -27 39 -48 77 -48 85 0 7 -4 17 -10 20 -5 3 -10 14 -10 23
0 9 -24 40 -52 70 -44 43 -50 54 -38 62 19 12 79 30 102 30 22 0 109 83 128
124 21 43 42 43 84 1 20 -19 47 -40 62 -45 38 -15 140 -12 181 5 19 8 44 15
54 15 11 0 19 4 19 9 0 5 8 12 18 15 9 4 32 29 50 56 18 28 43 55 56 60 32 12
84 77 96 120 14 51 12 103 -5 126 -8 10 -15 25 -15 31 0 12 -18 37 -48 69 -8
9 -34 14 -68 14 -45 0 -54 3 -54 18 -1 28 -52 94 -87 111 -30 15 -33 20 -33
67 0 53 -27 191 -40 209 -4 6 -11 24 -14 41 -4 17 -17 40 -29 51 -12 11 -42
43 -67 72 -24 28 -47 51 -51 51 -4 0 -32 25 -63 55 -30 30 -62 55 -71 55 -8 0
-47 17 -87 39 -121 64 -132 69 -169 80 -51 16 -162 12 -249 -8z m255 -1462
c11 -17 2 -18 -19 -3 -17 12 -17 14 -4 14 9 0 20 -5 23 -11z m760 -3334 c33
-13 71 -25 86 -25 14 0 29 -4 35 -9 5 -5 36 -12 69 -15 33 -3 89 -9 125 -15
36 -5 139 -14 230 -21 200 -13 225 -18 343 -74 97 -46 282 -112 357 -128 130
-27 167 -29 855 -48 249 -7 -250 -17 -1232 -25 l-1002 -8 11 39 c6 21 13 95
15 164 2 69 8 129 14 135 5 5 9 19 9 32 0 29 11 29 85 -2z m3775 -221 c74 -8
176 -19 225 -24 164 -15 270 -28 285 -33 8 -3 84 -11 168 -17 84 -6 162 -14
174 -19 12 -4 -248 -11 -578 -15 -329 -4 -727 -11 -884 -15 -350 -9 -453 9
-132 23 56 2 108 9 115 14 7 5 30 12 52 15 84 12 152 26 210 42 33 9 82 21
109 25 27 5 51 12 54 15 8 8 52 5 202 -11z"/>
</g>
</svg>
