<?xml version="1.0" standalone="no"?>
<!DOCTYPE svg PUBLIC "-//W3C//DTD SVG 20010904//EN"
 "http://www.w3.org/TR/2001/REC-SVG-20010904/DTD/svg10.dtd">
<svg version="1.0" xmlns="http://www.w3.org/2000/svg"
 width="926.000000pt" height="1280.000000pt" viewBox="0 0 926.000000 1280.000000"
 preserveAspectRatio="xMidYMid meet">
<metadata>
Created by potrace 1.15, written by Peter Selinger 2001-2017
</metadata>
<g transform="translate(0.000000,1280.000000) scale(0.100000,-0.100000)"
fill="#000000" stroke="none">
<path d="M1983 12788 c-6 -7 -36 -64 -67 -126 -32 -63 -64 -115 -74 -118 -48
-14 -67 -32 -83 -78 -11 -30 -32 -60 -57 -82 -48 -41 -57 -70 -41 -139 l12
-52 -78 -144 c-212 -391 -572 -1034 -958 -1709 -151 -264 -193 -329 -260 -405
-237 -266 -357 -556 -373 -900 l-6 -120 52 -169 c142 -463 368 -915 762 -1524
65 -101 121 -195 124 -207 4 -16 -5 -46 -24 -87 -46 -98 -57 -164 -56 -343 0
-178 8 -257 65 -685 70 -529 82 -708 54 -853 -27 -140 -36 -258 -36 -452 0
-259 28 -525 79 -745 23 -102 22 -315 -2 -430 -23 -107 -57 -217 -108 -344
-37 -94 -39 -106 -47 -255 -22 -425 37 -814 199 -1316 55 -172 58 -186 65
-315 16 -330 57 -635 120 -883 49 -197 65 -220 162 -243 134 -32 318 -11 457
50 48 21 74 26 141 26 100 0 226 -21 360 -60 55 -16 140 -40 189 -54 48 -14
98 -26 110 -26 24 0 160 63 170 78 12 20 -6 39 -72 71 -256 125 -682 422 -863
601 -75 73 -92 109 -140 298 -82 321 -109 788 -90 1502 17 606 17 600 86 761
184 428 307 806 379 1162 74 365 91 554 83 943 -6 342 -7 337 94 425 91 79
178 140 384 269 194 121 297 189 388 256 32 24 117 73 190 110 234 119 407
237 613 421 60 54 171 141 245 193 400 283 578 587 605 1033 8 139 10 142 119
150 39 3 150 26 247 51 207 54 328 76 409 76 31 0 108 11 171 24 448 97 935
168 1276 186 269 14 422 46 649 136 137 54 251 75 408 75 138 0 229 -16 341
-61 97 -39 141 -37 269 9 151 55 283 81 448 88 142 6 149 7 167 31 26 32 26
86 1 111 -29 29 -160 36 -446 23 l-250 -12 -145 40 c-319 88 -647 149 -915
170 -71 5 -191 15 -265 21 -138 11 -355 7 -523 -11 -51 -5 -140 -14 -199 -19
-147 -14 -280 -43 -498 -108 -448 -134 -548 -152 -732 -134 -312 31 -575 133
-766 296 -124 106 -129 315 -11 449 46 53 87 74 170 87 103 16 173 44 221 90
33 31 39 43 33 61 -4 13 -9 64 -12 113 -5 78 -9 95 -33 125 -15 19 -35 50 -44
69 -17 31 -17 36 -1 85 9 28 27 70 40 93 l23 42 -51 24 c-29 14 -71 41 -94 61
-57 50 -120 147 -128 198 -11 67 -54 197 -87 261 -72 143 -218 222 -484 262
-53 8 -100 18 -104 22 -3 5 -32 43 -64 86 -129 171 -338 329 -621 468 -195 95
-331 149 -580 230 -104 33 -210 68 -234 76 -50 18 -206 163 -321 298 l-70 83
-21 118 c-22 125 -29 143 -46 122z m712 -1268 c325 -210 595 -387 602 -394 12
-10 -21 -134 -137 -526 l-19 -65 -143 0 c-142 0 -144 0 -210 -33 -121 -60
-163 -139 -161 -307 1 -142 53 -345 140 -549 47 -110 58 -190 45 -318 -6 -57
-20 -133 -31 -168 -11 -35 -18 -66 -16 -68 9 -9 68 12 94 34 126 105 183 432
185 1056 0 179 3 325 4 323 2 -2 16 -40 32 -84 54 -156 161 -304 292 -403 100
-76 164 -113 293 -168 123 -53 138 -68 155 -159 12 -64 3 -84 -49 -111 -70
-35 -112 -96 -165 -236 -186 -496 -531 -1030 -963 -1491 l-58 -63 -74 26
c-140 48 -237 65 -411 70 -117 4 -187 1 -242 -8 l-78 -14 -86 144 c-262 438
-611 909 -892 1203 l-73 77 51 12 c118 28 236 157 363 400 103 195 189 406
427 1055 76 207 130 339 145 354 20 20 34 24 129 28 78 4 113 10 127 22 14 11
25 46 39 118 24 127 57 394 66 531 5 71 10 102 18 99 6 -3 277 -177 601 -387z"/>
</g>
</svg>
